<?xml version="1.0" encoding="utf-8"?>
<!-- Generator: Adobe Illustrator 17.0.0, SVG Export Plug-In . SVG Version: 6.00 Build 0)  -->
<!DOCTYPE svg PUBLIC "-//W3C//DTD SVG 1.1//EN" "http://www.w3.org/Graphics/SVG/1.1/DTD/svg11.dtd">
<svg version="1.1" id="Camada_2" xmlns="http://www.w3.org/2000/svg" xmlns:xlink="http://www.w3.org/1999/xlink" x="0px" y="0px"
	 width="29.563px" height="36.939px" viewBox="0 0 29.563 36.939" enable-background="new 0 0 29.563 36.939" xml:space="preserve">
<g>
	<path fill="#E12226" d="M21.748,11.862v21.984h7.815V11.862H21.748z M27.608,25.606h-3.907v-2.443h3.907V25.606z M27.608,21.633
		h-3.907V19.19h3.907V21.633z M27.608,17.236h-3.907v-2.443h3.907V17.236z"/>
	<path fill="#E12226" d="M0,11.862v21.984h7.817V11.862H0z M5.863,25.606h-3.91v-2.443h3.91V25.606z M5.863,21.633h-3.91V19.19h3.91
		V21.633z M5.863,17.236h-3.91v-2.443h3.91V17.236z"/>
	<path fill="#E12226" d="M8.431,10.397v23.449h2.932v-6.35h6.839v6.35h2.932V10.397H8.431z M13.806,24.075h-3.421v-2.443h3.421
		V24.075z M13.806,19.679h-3.421v-2.443h3.421V19.679z M13.806,15.283h-3.421V12.84h3.421V15.283z M19.178,24.075h-3.419v-2.443
		h3.419V24.075z M19.178,19.679h-3.419v-2.443h3.419V19.679z M19.178,15.283h-3.419V12.84h3.419V15.283z"/>
	<g>
		<path fill="#E12226" d="M20.032,5.286c-0.257,0.256-0.501,0.5-0.745,0.743c-2.562-2.487-6.514-2.423-9.03-0.013
			c-0.241-0.253-0.482-0.507-0.724-0.762C12.162,2.47,17.078,2.266,20.032,5.286z"/>
		<path fill="#E12226" d="M18.677,6.573c-0.244,0.268-0.476,0.521-0.707,0.774c-1.993-1.832-4.673-1.627-6.484,0.073
			c-0.102-0.142-0.194-0.304-0.319-0.433c-0.118-0.122-0.271-0.21-0.404-0.309C12.751,4.472,16.582,4.34,18.677,6.573z"/>
		<path fill="#E12226" d="M16.589,8.692c-1.338-0.981-2.1-0.982-3.678,0c-0.242-0.24-0.484-0.481-0.726-0.721
			c1.17-1.453,3.93-1.46,5.172-0.004C17.107,8.202,16.857,8.439,16.589,8.692z"/>
	</g>
</g>
</svg>
