<?xml version="1.0" encoding="utf-8"?>
<!-- Generator: Adobe Illustrator 17.0.0, SVG Export Plug-In . SVG Version: 6.00 Build 0)  -->
<!DOCTYPE svg PUBLIC "-//W3C//DTD SVG 1.1//EN" "http://www.w3.org/Graphics/SVG/1.1/DTD/svg11.dtd">
<svg version="1.1" id="Camada_2" xmlns="http://www.w3.org/2000/svg" xmlns:xlink="http://www.w3.org/1999/xlink" x="0px" y="0px"
	 width="29.563px" height="36.939px" viewBox="0 0 29.563 36.939" enable-background="new 0 0 29.563 36.939" xml:space="preserve">
<g>
	<path fill="#E12226" d="M29.642,17.673c0-0.142,0.001-0.284,0-0.426c-0.013-1.013-0.724-1.567-1.705-1.32
		c-0.461,0.115-0.917,0.251-1.406,0.385c-0.372-0.899-0.735-1.777-1.098-2.657c-0.118-0.286-0.229-0.575-0.348-0.861
		c-0.572-1.384-1.797-2.205-3.289-2.206c-0.255,0-0.51,0-0.809,0l-12.4,0c-0.334,0-0.626,0-0.919,0
		c-1.393,0.002-2.643,0.838-3.18,2.133C4,13.9,3.517,15.081,3.014,16.303c-0.39-0.106-0.771-0.208-1.152-0.313
		c-1.028-0.283-1.477-0.09-1.943,0.838c0,0.517,0,1.033,0,1.55c0.289,0.768,0.792,1.257,1.7,1.262
		c-0.138,0.392-0.278,0.759-0.397,1.132c-0.385,1.214-0.57,2.459-0.568,3.734c0.004,2.247,0.004,4.495-0.001,6.742
		c-0.001,0.55,0.08,1.09,0.54,1.428c0.295,0.217,0.681,0.384,1.042,0.421c0.652,0.067,1.316,0.02,1.974,0.019
		c1.029-0.002,1.694-0.651,1.715-1.685c0.011-0.566,0.002-1.132,0.002-1.725c5.904,0,11.774,0,17.696,0c0,0.556-0.001,1.107,0,1.658
		c0.003,1.104,0.652,1.75,1.758,1.751c0.633,0,1.266,0.005,1.899-0.001c0.847-0.009,1.573-0.653,1.578-1.493
		c0.014-2.737,0.023-5.476-0.032-8.213c-0.023-1.177-0.339-2.32-0.785-3.417c-0.043-0.105-0.077-0.214-0.116-0.325
		C29.2,19.477,29.642,18.958,29.642,17.673z M9.393,26c-0.016,0.418-0.258,0.623-0.68,0.628c-0.722,0.009-1.444,0.002-2.166,0.003
		c-0.696,0-1.393,0.003-2.089-0.001c-0.532-0.003-0.751-0.222-0.753-0.749c-0.003-0.632-0.004-1.264,0-1.895
		c0.003-0.485,0.229-0.722,0.699-0.724c1.431-0.004,2.862-0.004,4.294,0c0.436,0.001,0.684,0.211,0.699,0.652
		C9.421,24.608,9.419,25.305,9.393,26z M5.321,19.928c-0.103,0-0.207,0.003-0.31-0.001c-0.757-0.024-1.094-0.53-0.807-1.236
		c0.616-1.516,1.242-3.029,1.864-4.543c0.137-0.334,0.266-0.671,0.414-1c0.363-0.805,1.001-1.268,1.873-1.272
		c4.274-0.019,8.547-0.018,12.821-0.001c0.874,0.004,1.532,0.454,1.875,1.268c0.774,1.841,1.529,3.691,2.279,5.542
		c0.303,0.748-0.05,1.239-0.874,1.24c-3.228,0.003-6.456,0.001-9.683,0.001C11.622,19.928,8.471,19.928,5.321,19.928z
		 M25.087,26.628c-1.432,0.006-2.864,0.007-4.296,0c-0.449-0.002-0.695-0.244-0.704-0.696c-0.014-0.658-0.014-1.316,0-1.974
		c0.01-0.458,0.274-0.695,0.743-0.698c0.709-0.004,1.419-0.001,2.128-0.001c0.709,0,1.419-0.004,2.128,0.001
		c0.473,0.003,0.712,0.241,0.716,0.716c0.006,0.645,0.006,1.29,0,1.935C25.799,26.387,25.566,26.626,25.087,26.628z"/>
	<g>
		<path fill="#E12226" d="M19.577,5.81c-0.235,0.234-0.458,0.457-0.68,0.679c-2.341-2.272-5.952-2.214-8.25-0.012
			c-0.22-0.231-0.44-0.463-0.661-0.696C12.388,3.237,16.879,3.051,19.577,5.81z"/>
		<path fill="#E12226" d="M18.34,6.986c-0.223,0.244-0.435,0.476-0.646,0.707c-1.821-1.674-4.27-1.487-5.924,0.066
			c-0.093-0.13-0.177-0.278-0.291-0.396c-0.108-0.111-0.247-0.192-0.369-0.283C12.925,5.066,16.425,4.946,18.34,6.986z"/>
		<path fill="#E12226" d="M16.431,8.922c-1.222-0.897-1.919-0.897-3.36,0c-0.221-0.219-0.442-0.439-0.664-0.659
			c1.069-1.328,3.59-1.334,4.725-0.004C16.905,8.474,16.676,8.691,16.431,8.922z"/>
	</g>
</g>
</svg>
